<svg width="31" height="19" viewBox="0 0 31 19" fill="none" xmlns="http://www.w3.org/2000/svg">
<path d="M30.3395 1.30625C30.5123 0.59375 30.3395 0 29.3033 0H25.9066C25.0431 0 24.6401 0.475 24.4098 1.00937C24.4098 1.00937 22.6827 5.34375 20.2647 8.19375C19.4588 8.96562 19.1133 9.2625 18.6528 9.2625C18.4801 9.2625 18.1346 8.96562 18.1346 8.25313V1.30625C18.1346 0.415625 17.9044 0 17.1559 0H11.8595C11.2838 0 10.9959 0.415625 10.9959 0.83125C10.9959 1.6625 12.2049 1.84062 12.32 4.21562V9.38125C12.32 10.5094 12.1473 10.7469 11.6868 10.7469C10.5354 10.7469 7.77199 6.35312 6.10245 1.36563C5.75703 0.415625 5.41161 0 4.54805 0H1.15141C0.230281 0 0 0.475 0 1.00937C0 1.95937 1.15141 6.53125 5.35404 12.6469C8.17498 16.8031 12.1473 19 15.7167 19C17.8468 19 18.1346 18.525 18.1346 17.6938C18.1346 13.7156 17.9619 13.3 18.9982 13.3C19.5163 13.3 20.3799 13.5969 22.3948 15.6156C24.6977 17.9906 25.1007 19 26.3672 19H29.7638C30.7425 19 31.2031 18.525 30.9152 17.5156C30.282 15.4969 25.9642 11.2219 25.7339 10.925C25.2158 10.2719 25.3885 9.975 25.7339 9.38125C25.7339 9.38125 29.879 3.325 30.3395 1.30625Z" fill="#2B2B2B"/>
</svg>
