<svg width="21" height="21" viewBox="0 0 21 21" fill="none" xmlns="http://www.w3.org/2000/svg">
<path d="M17.8125 3.09375C15.8906 1.125 13.2656 0 10.4531 0C4.73438 0 0.046875 4.6875 0.046875 10.4062C0.046875 12.2812 0.5625 14.0625 1.45312 15.6094L0 21L5.48438 19.5938C7.03125 20.3906 8.71875 20.8594 10.4531 20.8594C16.2188 20.8594 21 16.1719 21 10.4531C21 7.64062 19.7812 5.0625 17.8125 3.09375ZM10.4531 19.0781C8.90625 19.0781 7.40625 18.6562 6.04688 17.8594L5.76562 17.6719L2.48438 18.5625L3.375 15.375L3.14062 15.0469C2.29688 13.6406 1.82812 12.0469 1.82812 10.4062C1.82812 5.67188 5.71875 1.78125 10.5 1.78125C12.7969 1.78125 14.9531 2.67188 16.5938 4.3125C18.2344 5.95312 19.2188 8.10938 19.2188 10.4531C19.2188 15.1875 15.2344 19.0781 10.4531 19.0781ZM15.2344 12.6094C14.9531 12.4688 13.6875 11.8594 13.4531 11.7656C13.2188 11.6719 13.0312 11.625 12.8438 11.9062C12.7031 12.1406 12.1875 12.75 12.0469 12.9375C11.8594 13.0781 11.7188 13.125 11.4844 12.9844C9.9375 12.2344 8.95312 11.625 7.92188 9.89062C7.64062 9.42188 8.20312 9.46875 8.67188 8.48438C8.76562 8.29688 8.71875 8.15625 8.67188 8.01562C8.625 7.875 8.0625 6.60938 7.875 6.09375C7.64062 5.57812 7.45312 5.625 7.26562 5.625C7.125 5.625 6.9375 5.625 6.79688 5.625C6.60938 5.625 6.32812 5.67188 6.09375 5.95312C5.85938 6.23438 5.20312 6.84375 5.20312 8.10938C5.20312 9.42188 6.09375 10.6406 6.23438 10.8281C6.375 10.9688 8.0625 13.5938 10.6875 14.7188C12.3281 15.4688 12.9844 15.5156 13.8281 15.375C14.2969 15.3281 15.3281 14.7656 15.5625 14.1562C15.7969 13.5469 15.7969 13.0312 15.7031 12.9375C15.6562 12.7969 15.4688 12.75 15.2344 12.6094Z" fill="#2B2B2B"/>
</svg>
