<svg width="191" height="80" viewBox="0 0 191 80" fill="none" xmlns="http://www.w3.org/2000/svg">
<path d="M99.1231 36.3403C95.888 36.3403 93.1706 35.4414 91.1001 33.5153L93.8176 30.305C95.4998 31.7175 97.4409 32.3596 99.3819 32.3596C100.676 32.3596 101.323 31.9743 101.323 31.0754C101.323 30.6902 101.064 30.4334 100.676 30.1766C100.288 29.9197 99.5113 29.7913 98.3467 29.5345C97.3115 29.2777 96.4057 29.0209 95.7586 28.764C95.1116 28.5072 94.4646 28.2504 93.8176 27.8652C93.1706 27.4799 92.6529 26.9663 92.3941 26.3242C92.0059 25.6822 91.8765 25.0401 91.8765 24.1413C91.8765 22.4719 92.5235 21.1878 93.6882 20.1605C94.8528 19.1332 96.5351 18.6196 98.6055 18.6196C101.452 18.6196 103.782 19.39 105.723 20.931L103.393 24.2697C101.841 23.114 100.158 22.6003 98.6055 22.6003C98.0879 22.6003 97.5703 22.7287 97.3115 22.8571C97.0527 23.114 96.9233 23.3708 96.9233 23.6276C96.9233 24.0128 97.1821 24.2697 97.5703 24.5265C97.9585 24.7833 98.7349 25.0401 99.8996 25.297C102.099 25.8106 103.652 26.4527 104.688 27.2231C105.723 27.9936 106.24 29.1493 106.24 30.6902C106.24 32.3596 105.593 33.7721 104.299 34.7994C103.005 35.8267 101.323 36.3403 99.1231 36.3403Z" fill="#617D91"/>
<path d="M115.298 36.0835V23.114H110.122V19.0048H125.263V23.114H120.086V36.0835H115.298Z" fill="#617D91"/>
<path d="M130.051 36.0835V19.0048H143.897V22.9855H134.839V25.5538H143.121V29.2777H134.839V31.9743H144.026V35.955H130.051V36.0835Z" fill="#617D91"/>
<path d="M149.202 36.0835V19.0048H163.049V22.9855H153.99V25.5538H162.272V29.2777H153.99V31.9743H163.178V35.955H149.202V36.0835Z" fill="#617D91"/>
<path d="M168.225 36.0835V19.0048H173.013V31.9743H181.295V36.0835H168.225Z" fill="#617D91"/>
<path d="M92.394 60.4815V43.4029H97.182V49.8234H103.264V43.4029H108.052V60.4815H103.264V53.9326H97.182V60.4815H92.394Z" fill="#617D91"/>
<path d="M129.145 58.1702C127.333 59.8395 125.133 60.7384 122.545 60.7384C119.957 60.7384 117.757 59.8395 115.945 58.1702C114.134 56.5008 113.357 54.3178 113.357 51.878C113.357 49.4382 114.263 47.2552 116.075 45.5859C117.887 43.9165 120.086 43.0177 122.675 43.0177C125.263 43.0177 127.462 43.9165 129.274 45.5859C131.086 47.2552 131.862 49.4382 131.862 51.878C131.733 54.3178 130.827 56.5008 129.145 58.1702ZM122.545 56.5008C123.839 56.5008 124.874 56.1156 125.651 55.2167C126.427 54.3178 126.815 53.2905 126.815 52.0064C126.815 50.7223 126.427 49.695 125.521 48.7962C124.745 47.8973 123.58 47.3836 122.286 47.3836C120.992 47.3836 119.957 47.7689 119.181 48.6678C118.404 49.5666 118.016 50.5939 118.016 51.878C118.016 53.1621 118.404 54.1894 119.31 55.0883C120.216 56.1156 121.251 56.5008 122.545 56.5008Z" fill="#617D91"/>
<path d="M144.673 60.7384C142.085 60.7384 140.144 60.0963 138.85 58.8122C137.427 57.5281 136.78 55.6019 136.78 52.9053V43.2745H141.567V52.7769C141.567 53.9326 141.826 54.8315 142.473 55.4735C142.991 56.1156 143.767 56.3724 144.803 56.3724C145.838 56.3724 146.614 56.1156 147.132 55.4735C147.649 54.8315 148.038 54.061 148.038 52.7769V43.1461H152.826V52.6485C152.826 55.3451 152.179 57.2713 150.755 58.5554C149.202 60.0963 147.261 60.7384 144.673 60.7384Z" fill="#617D91"/>
<path d="M164.99 60.7384C161.754 60.7384 159.037 59.8395 156.967 57.9133L159.684 54.7031C161.366 56.1156 163.307 56.7576 165.248 56.7576C166.542 56.7576 167.189 56.3724 167.189 55.4735C167.189 55.0883 166.931 54.8315 166.542 54.5746C166.154 54.3178 165.378 54.061 164.213 53.8042C163.178 53.5474 162.272 53.2905 161.625 53.0337C160.978 52.7769 160.331 52.5201 159.684 52.1348C159.037 51.7496 158.519 51.236 158.261 50.5939C158.002 49.9519 157.743 49.1814 157.743 48.4109C157.743 46.7416 158.39 45.4575 159.555 44.4302C160.719 43.4029 162.402 42.8893 164.472 42.8893C167.319 42.8893 169.648 43.6597 171.589 45.2006L169.26 48.5393C167.707 47.3836 166.025 46.87 164.472 46.87C163.954 46.87 163.437 46.9984 163.178 47.1268C162.919 47.3836 162.79 47.6405 162.79 47.8973C162.79 48.2825 163.049 48.5393 163.437 48.7962C163.825 49.053 164.601 49.3098 165.766 49.5666C167.966 50.0803 169.519 50.7223 170.554 51.4928C171.589 52.2632 172.107 53.4189 172.107 54.9599C172.107 56.6292 171.46 58.0417 170.166 59.069C168.872 60.2247 167.189 60.7384 164.99 60.7384Z" fill="#617D91"/>
<path d="M177.024 60.4815V43.4029H190.871V47.3836H181.812V49.9518H190.094V53.6757H181.812V56.3724H191V60.3531H177.024V60.4815Z" fill="#617D91"/>
<path d="M72.8542 78.7159H7.63473C4.14083 78.7159 1.29395 75.8909 1.29395 72.4238V7.57625C1.29395 4.10916 4.14083 1.28412 7.63473 1.28412H72.8542C76.3481 1.28412 79.195 4.10916 79.195 7.57625V72.2954C79.3244 75.8909 76.4775 78.7159 72.8542 78.7159Z" stroke="#617D91" stroke-width="2" stroke-miterlimit="10"/>
<path d="M68.5841 74.4783H11.9052C8.41134 74.4783 5.56445 71.6533 5.56445 68.1862V11.8138C5.56445 8.34671 8.41134 5.52167 11.9052 5.52167H68.5841C72.078 5.52167 74.9249 8.34671 74.9249 11.8138V68.0578C75.0543 71.6533 72.2074 74.4783 68.5841 74.4783Z" fill="#617D91"/>
<path d="M54.8673 15.7945L38.9507 33.3868V60.8668L68.5841 59.4543V35.5698L54.8673 15.7945Z" fill="white" stroke="#627E91" stroke-width="2" stroke-miterlimit="10" stroke-linecap="round" stroke-linejoin="round"/>
<path d="M54.8673 15.7945L23.681 26.5811L12.0347 38.7801V57.9133L38.9507 60.8668V33.3868L54.8673 15.7945Z" fill="white" stroke="#627E91" stroke-width="2" stroke-miterlimit="10" stroke-linecap="round" stroke-linejoin="round"/>
<path d="M12.0347 38.7801L38.9507 33.3868" stroke="#627E91" stroke-width="2" stroke-miterlimit="10" stroke-linecap="round" stroke-linejoin="round"/>
<path d="M54.4792 20.1605L41.6682 35.0562V57.2713L65.9961 56.7576V36.0835L54.4792 20.1605Z" fill="#617D91"/>
<path d="M27.951 25.1685L16.9517 37.7528" stroke="#627E91" stroke-width="0.75" stroke-miterlimit="10" stroke-linecap="round" stroke-linejoin="round"/>
<path d="M30.9273 24.6549L19.928 37.2392" stroke="#627E91" stroke-width="0.75" stroke-miterlimit="10" stroke-linecap="round" stroke-linejoin="round"/>
<path d="M34.939 23.4992L23.9397 36.0835" stroke="#627E91" stroke-width="0.75" stroke-miterlimit="10" stroke-linecap="round" stroke-linejoin="round"/>
<path d="M39.2093 21.8299L28.3394 34.4141" stroke="#627E91" stroke-width="0.75" stroke-miterlimit="10" stroke-linecap="round" stroke-linejoin="round"/>
<path d="M43.4796 20.4173L31.9626 33.9005" stroke="#627E91" stroke-width="0.75" stroke-miterlimit="10" stroke-linecap="round" stroke-linejoin="round"/>
<path d="M47.3617 19.1332L35.1978 33.3869" stroke="#627E91" stroke-width="0.75" stroke-miterlimit="10" stroke-linecap="round" stroke-linejoin="round"/>
<path d="M15.0107 39.2937V57.2713" stroke="#627E91" stroke-width="0.75" stroke-miterlimit="10" stroke-linecap="round" stroke-linejoin="round"/>
<path d="M17.8577 38.0096V57.7849" stroke="#627E91" stroke-width="0.75" stroke-miterlimit="10" stroke-linecap="round" stroke-linejoin="round"/>
<path d="M20.7046 38.0096V57.7849" stroke="#627E91" stroke-width="0.75" stroke-miterlimit="10" stroke-linecap="round" stroke-linejoin="round"/>
<path d="M23.5513 36.9824V58.1702" stroke="#627E91" stroke-width="0.75" stroke-miterlimit="10" stroke-linecap="round" stroke-linejoin="round"/>
<path d="M26.5278 36.9824V58.1702" stroke="#627E91" stroke-width="0.75" stroke-miterlimit="10" stroke-linecap="round" stroke-linejoin="round"/>
<path d="M29.3745 36.0835V58.8122" stroke="#627E91" stroke-width="0.75" stroke-miterlimit="10" stroke-linecap="round" stroke-linejoin="round"/>
<path d="M32.3508 35.313V59.4543" stroke="#627E91" stroke-width="0.75" stroke-miterlimit="10" stroke-linecap="round" stroke-linejoin="round"/>
<path d="M35.4565 35.313V59.4543" stroke="#627E91" stroke-width="0.75" stroke-miterlimit="10" stroke-linecap="round" stroke-linejoin="round"/>
</svg>
